<?xml version="1.0" standalone="no"?>
<!DOCTYPE svg PUBLIC "-//W3C//DTD SVG 20010904//EN"
 "http://www.w3.org/TR/2001/REC-SVG-20010904/DTD/svg10.dtd">
<svg version="1.0" xmlns="http://www.w3.org/2000/svg"
 width="1079.000000pt" height="314.000000pt" viewBox="0 0 1079.000000 314.000000"
 preserveAspectRatio="xMidYMid meet">

<g transform="translate(0.000000,314.000000) scale(0.100000,-0.100000)"
fill="#000000" stroke="none">
<path d="M2085 2599 c-107 -148 -103 -139 -58 -139 37 1 41 5 118 112 107 149
103 138 58 137 -37 0 -41 -4 -118 -110z"/>
<path d="M5317 2578 c-110 -150 -105 -138 -60 -138 37 0 40 4 123 117 47 64
87 120 88 125 2 4 -12 8 -32 8 -34 0 -40 -6 -119 -112z"/>
<path d="M485 2616 c-109 -35 -180 -98 -212 -190 -16 -45 -18 -90 -17 -401 0
-343 1 -351 23 -402 28 -64 93 -126 169 -161 49 -23 70 -27 147 -27 76 1 101
5 159 30 63 26 72 27 110 16 23 -7 51 -15 64 -18 l22 -5 0 306 0 306 -170 0
-170 0 0 -49 0 -50 43 -3 42 -3 3 -126 c2 -116 1 -127 -18 -144 -32 -29 -117
-26 -141 4 -18 22 -19 46 -19 337 0 301 1 315 20 334 29 29 94 27 125 -5 21
-20 25 -34 25 -80 l0 -55 130 0 130 0 0 83 c-1 121 -42 199 -141 262 -80 51
-231 70 -324 41z"/>
<path d="M4210 2030 l0 -600 125 0 125 0 0 224 0 223 95 6 c155 9 240 59 297
175 33 66 33 68 33 207 0 133 -1 143 -27 191 -76 144 -156 173 -480 174 l-168
0 0 -600z m393 379 c12 -6 29 -20 37 -32 18 -30 25 -152 11 -205 -10 -37 -19
-46 -54 -63 -23 -10 -63 -19 -89 -19 l-48 0 0 165 0 165 60 0 c32 0 70 -5 83
-11z"/>
<path d="M5965 2327 c-66 -15 -125 -33 -132 -40 -8 -9 -10 -121 -6 -434 l6
-423 128 0 129 0 0 265 c0 292 3 311 59 358 43 36 102 50 184 44 l67 -4 0 105
0 105 -68 -6 c-68 -7 -152 -31 -210 -61 l-31 -16 -3 68 -3 68 -120 -29z"/>
<path d="M8425 2326 l-130 -32 0 -429 0 -430 133 -3 132 -3 0 273 c0 320 1
324 91 371 50 27 61 29 137 25 l82 -4 0 103 0 103 -43 0 c-54 0 -146 -24 -214
-55 l-52 -24 -3 69 -3 68 -130 -32z"/>
<path d="M6625 2326 c-55 -11 -106 -25 -112 -29 -10 -6 -13 -138 -13 -603 l0
-594 135 0 135 0 0 190 0 189 51 -25 c106 -54 277 -40 354 27 53 47 58 80 59
379 1 236 -1 270 -18 313 -23 61 -77 102 -154 118 -95 19 -176 6 -284 -49 -5
-2 -8 21 -8 52 0 66 6 65 -145 32z m298 -237 c41 -19 47 -48 47 -240 l0 -180
-26 -26 c-23 -23 -31 -25 -81 -21 -91 8 -93 13 -93 240 0 187 0 189 25 213 27
28 85 34 128 14z"/>
<path d="M9963 2285 c-113 -31 -184 -83 -219 -160 -26 -55 -30 -95 -13 -146
31 -91 94 -135 273 -189 136 -40 173 -61 183 -98 5 -20 0 -31 -26 -54 -55 -49
-153 -32 -186 32 l-16 30 -125 0 -126 0 7 -37 c10 -56 51 -129 88 -157 18 -14
60 -38 92 -53 55 -26 69 -28 180 -28 142 1 204 20 280 87 109 96 115 239 13
334 -44 42 -91 64 -228 107 -130 41 -160 58 -160 92 0 78 175 88 194 10 l6
-25 125 0 125 0 0 28 c-1 75 -69 159 -169 205 -52 25 -79 30 -155 33 -60 3
-109 -1 -143 -11z"/>
<path d="M4990 1948 c0 -220 4 -357 11 -383 15 -55 76 -110 141 -130 101 -30
235 -12 296 40 17 14 38 25 48 25 11 0 67 -15 127 -34 l107 -34 0 429 0 429
-130 0 -129 0 -3 -311 -3 -311 -28 -24 c-37 -31 -103 -33 -141 -3 l-26 20 0
315 0 314 -135 0 -135 0 0 -342z"/>
<path d="M7392 1938 c3 -259 7 -361 16 -383 33 -76 113 -126 213 -133 85 -6
158 12 220 53 l49 34 117 -40 c64 -21 118 -39 120 -39 2 0 3 194 3 430 l0 430
-135 0 -135 0 0 -309 0 -308 -25 -27 c-20 -21 -33 -26 -73 -26 -34 0 -57 6
-73 19 l-24 19 -3 316 -3 316 -135 0 -135 0 3 -352z"/>
<path d="M9000 2196 l0 -96 83 -1 c119 -1 187 -12 203 -34 8 -10 14 -39 14
-64 l0 -46 -118 0 c-154 -1 -242 -26 -295 -84 -99 -110 -84 -353 25 -404 84
-39 209 -51 282 -27 20 6 57 27 81 45 l44 34 121 -44 c67 -25 123 -45 126 -45
2 0 4 145 4 323 0 317 -1 323 -24 372 -27 59 -70 98 -146 134 -51 24 -66 26
-227 29 l-173 4 0 -96z m300 -475 c0 -63 -2 -71 -26 -90 -20 -16 -41 -21 -82
-21 -69 0 -102 25 -102 77 0 72 43 102 148 103 l62 0 0 -69z"/>
</g>
</svg>
